<?xml version="1.0" encoding="utf-8"?>
<!-- Generator: Adobe Illustrator 23.0.3, SVG Export Plug-In . SVG Version: 6.00 Build 0)  -->
<svg version="1.1" id="Warstwa_1" xmlns="http://www.w3.org/2000/svg" xmlns:xlink="http://www.w3.org/1999/xlink" x="0px" y="0px"
	 viewBox="0 0 707.1 200" style="enable-background:new 0 0 707.1 200;" xml:space="preserve">
<style type="text/css">
	.st0{display:none;fill:#ED1C24;}
	.st1{display:none;fill:#FFFFFF;}
	.st2{display:none;opacity:4.000000e-02;stroke:#FFFFFF;stroke-miterlimit:10;enable-background:new    ;}
	.st3{display:none;opacity:8.000000e-02;stroke:#FFFFFF;stroke-miterlimit:10;enable-background:new    ;}
	.st4{display:none;fill-opacity:0;}
	.st5{display:none;}
	.st6{display:inline;fill:#333333;}
	.st7{display:inline;fill:#ED1C24;}
	.st8{fill:#616161;}
	.st9{fill:#F46C22;}
</style>
<polygon class="st0" points="0,150 0,50 86.6,0 173.2,50 173.2,150 86.6,200 "/>
<polygon class="st1" points="86.6,133.3 57.7,116.7 57.7,83.3 86.6,66.7 115.5,83.3 144.3,66.7 86.6,33.3 28.9,66.7 28.9,133.3 
	86.6,166.7 144.3,133.3 115.5,116.7 "/>
<polygon class="st2" points="0,50 86.6,100 86.6,0 "/>
<polygon class="st2" points="0,150 86.6,200 86.6,100 "/>
<polygon class="st3" points="86.6,100 173.2,150 173.2,50 "/>
<polygon class="st4" points="86.6,100 0,50 0,150 "/>
<polygon class="st3" points="173.2,150 86.6,100 86.6,200 "/>
<polygon class="st3" points="173.2,50 86.6,0 86.6,100 "/>
<g class="st5">
	<path class="st6" d="M290.4,127.3c1,0,1.8,0.4,2.6,1.1l7.2,7.8c-4,4.9-8.8,8.7-14.6,11.3c-5.8,2.6-12.7,3.9-20.8,3.9
		c-7.2,0-13.8-1.2-19.5-3.7c-5.8-2.5-10.7-5.9-14.8-10.3c-4.1-4.4-7.2-9.7-9.4-15.8c-2.2-6.1-3.3-12.8-3.3-20
		c0-7.3,1.2-14.1,3.6-20.1c2.4-6.1,5.8-11.4,10.3-15.8c4.4-4.4,9.7-7.8,15.8-10.3s12.9-3.7,20.4-3.7c7.2,0,13.6,1.2,19,3.5
		s10.1,5.4,13.9,9.2l-6.1,8.4c-0.4,0.5-0.8,1-1.4,1.4s-1.3,0.6-2.3,0.6s-2.1-0.4-3.2-1.2s-2.5-1.7-4.1-2.6c-1.7-0.9-3.8-1.8-6.3-2.6
		c-2.5-0.8-5.8-1.2-9.7-1.2c-4.6,0-8.8,0.8-12.7,2.4c-3.8,1.6-7.2,3.9-9.9,6.9s-4.9,6.6-6.5,10.8c-1.6,4.3-2.3,9-2.3,14.3
		c0,5.5,0.8,10.4,2.3,14.6c1.6,4.3,3.7,7.9,6.3,10.8c2.7,2.9,5.8,5.2,9.4,6.7c3.6,1.6,7.5,2.3,11.6,2.3c2.5,0,4.7-0.1,6.7-0.4
		c2-0.3,3.8-0.7,5.5-1.3s3.3-1.3,4.8-2.3c1.5-0.9,3-2.1,4.5-3.4c0.4-0.4,0.9-0.7,1.4-1C289.3,127.4,289.9,127.3,290.4,127.3z"/>
	<path class="st6" d="M407.5,101.5c0,7.2-1.2,13.8-3.6,19.9s-5.7,11.4-10.1,15.8c-4.3,4.5-9.5,7.9-15.6,10.4s-12.8,3.7-20.2,3.7
		c-7.4,0-14.1-1.2-20.2-3.7s-11.3-6-15.7-10.4c-4.3-4.5-7.7-9.7-10.1-15.8c-2.4-6.1-3.6-12.7-3.6-19.9c0-7.2,1.2-13.8,3.6-19.9
		s5.7-11.4,10.1-15.8c4.3-4.5,9.6-7.9,15.7-10.4s12.8-3.7,20.2-3.7c7.4,0,14.1,1.3,20.2,3.8s11.3,6,15.6,10.4
		c4.3,4.4,7.7,9.7,10.1,15.8C406.3,87.7,407.5,94.3,407.5,101.5z M388.9,101.5c0-5.4-0.7-10.2-2.1-14.4c-1.4-4.3-3.5-7.9-6.1-10.8
		c-2.7-3-5.9-5.2-9.7-6.8c-3.8-1.6-8.1-2.4-12.9-2.4s-9.1,0.8-12.9,2.4s-7.1,3.8-9.8,6.8c-2.7,3-4.7,6.6-6.2,10.8
		c-1.4,4.3-2.2,9.1-2.2,14.4c0,5.4,0.7,10.2,2.2,14.4c1.4,4.3,3.5,7.9,6.2,10.8s5.9,5.2,9.8,6.8c3.8,1.6,8.1,2.4,12.9,2.4
		s9.1-0.8,12.9-2.4c3.8-1.6,7-3.8,9.7-6.8c2.7-2.9,4.7-6.5,6.1-10.8C388.2,111.7,388.9,106.9,388.9,101.5z"/>
	<path class="st6" d="M440.6,112.2v38.1h-18.2V52.7h29.8c6.7,0,12.4,0.7,17.1,2.1c4.7,1.4,8.6,3.3,11.7,5.8c3,2.5,5.3,5.4,6.7,8.9
		c1.4,3.4,2.1,7.2,2.1,11.4c0,3.3-0.5,6.4-1.5,9.3s-2.4,5.6-4.2,8c-1.8,2.4-4.1,4.5-6.8,6.3c-2.7,1.8-5.7,3.2-9.1,4.3
		c2.3,1.3,4.3,3.2,5.9,5.6l24.4,36h-16.3c-1.6,0-2.9-0.3-4-0.9c-1.1-0.6-2-1.5-2.8-2.7l-20.5-31.3c-0.8-1.2-1.6-2-2.5-2.5
		s-2.3-0.7-4.1-0.7h-7.7V112.2z M440.6,99.1h11.3c3.4,0,6.4-0.4,8.9-1.3s4.6-2,6.3-3.5c1.6-1.5,2.9-3.3,3.7-5.4
		c0.8-2.1,1.2-4.3,1.2-6.8c0-4.9-1.6-8.8-4.9-11.4c-3.3-2.7-8.2-4-15-4h-11.6v32.4C440.5,99.1,440.6,99.1,440.6,99.1z"/>
	<path class="st6" d="M571.8,52.7v14.4h-43.3v27.1h34.1v14h-34.1v27.6h43.3v14.5h-61.6V52.7H571.8z"/>
	<path class="st7" d="M626.8,135.7c3.5,0,6.6-0.6,9.4-1.8c2.8-1.2,5.1-2.8,7-4.9c1.9-2.1,3.4-4.7,4.4-7.7s1.5-6.4,1.5-10.1V52.7
		h18.2v58.5c0,5.8-0.9,11.2-2.8,16.1c-1.9,4.9-4.6,9.2-8.1,12.8c-3.5,3.6-7.8,6.4-12.8,8.4s-10.6,3-16.9,3s-11.9-1-16.9-3
		s-9.2-4.8-12.7-8.4c-3.5-3.6-6.2-7.8-8-12.8c-1.9-4.9-2.8-10.3-2.8-16.1V52.7h18.2v58.4c0,3.7,0.5,7.1,1.5,10.1s2.5,5.6,4.4,7.7
		s4.2,3.8,7,5C620.1,135.1,623.3,135.7,626.8,135.7z"/>
	<path class="st7" d="M706.2,150.3H688V52.7h18.2V150.3z"/>
</g>
<path class="st8" d="M20.6,87.5c2.5-5.9,10-11.3,18.6-11.8c0,0,10.2-0.8,12.1,9.4c0,0,3.4,21.5,0,24.9c0,0-5.1,7.2-11.5,8
	c0,0-3.5,29.8,27.1,49.9l4-3.2c0,0,7.5-5.4,14.7-0.3c0,0,12.3,7.4,13.9,9.1s9,8.8-0.3,20.9c0,0-6.3,9.8-26.5,2.5
	c0,0-34.5-8.5-52.3-55.9C20.5,141,10.8,109.9,20.6,87.5z"/>
<path class="st9" d="M220.6,109.7c-1.5,34.8-12,54.1-34.4,78c-6.3,7-20.9,5.7-15.7-9.8c3.5-19.1,2.7-25-1.8-39.3
	c-13.8-41.7-31.4-41.1-36.7-39.6c-1.8,0.3-10.6,6.7-8,15c1,3.9,12.8,24-8.1,29.1c-24.5,2.9-23.7-15.9-21.2-20.4
	c8.7-21.2-6.3-26.6-12.1-24.1c-13.5,3.9-24.3,25.2-24.9,28.1c-2.2,5.6-3.8,12.6-5.8,18.1c-3.9-5.4-6-16-6.6-23.1
	C63.4,111.8,59.3,83,52,75.6c-11.8-10.8-26.4-3.6-29.9,0.8c-9.8,7.8-27.4,64.8,25.3,113.9c-2.8,0.2-4.5,0.4-7.1,0.3
	C18,170.8,4,141.9,4,109.7C4,49.9,52.5,1.5,112.3,1.5S220.6,49.9,220.6,109.7z"/>
<g>
	<path class="st9" d="M271.9,88.7h-15.6v64.4h-16.6V88.7H224V73.4h47.8V88.7z"/>
	<path class="st9" d="M321.8,137.7v15.4h-42.3V73.4h41.1v15.4h-24.9v16.5h22.7v14.8h-22.7v17.7H321.8z"/>
	<path class="st9" d="M372.7,137.7v15.4h-39.9V73.4H349v64.4H372.7z"/>
	<path d="M423,138.8v13h-35.7V84.5h34.7v13h-21v13.9h19.1v12.5H401v14.9H423z"/>
	<path d="M433.8,147.6c-3.7-3.7-5.6-8.8-5.6-15.5h14c0,5.1,2.3,7.7,7,7.7c2.2,0,3.8-0.6,5-1.7c1.2-1.1,1.7-2.5,1.7-4.3
		c0-2.1-0.8-3.9-2.5-5.5c-1.6-1.5-4.2-3.4-7.7-5.7c-3.4-2.1-6.2-4-8.3-5.8c-2.1-1.7-4-3.9-5.5-6.6c-1.5-2.7-2.3-5.8-2.3-9.5
		c0-5.3,1.7-9.5,5.2-12.8c3.5-3.3,8.3-4.9,14.4-4.9c6.2,0,11.1,1.7,14.6,5.2c3.5,3.5,5.3,8.3,5.3,14.6h-14c0-4.4-2-6.6-6-6.6
		c-1.8,0-3.2,0.4-4.2,1.3c-1,0.9-1.5,2.1-1.5,3.7c0,1.9,0.8,3.6,2.4,5c1.6,1.4,4.1,3.1,7.5,5.2c3.5,2.1,6.4,4,8.6,5.8
		c2.2,1.7,4.1,4,5.8,6.7c1.6,2.8,2.5,6.1,2.5,10c0,3.7-0.9,7-2.5,9.9c-1.7,2.9-4.1,5.1-7.3,6.8c-3.2,1.6-6.9,2.5-11.3,2.5
		C442.6,153.1,437.5,151.3,433.8,147.6z"/>
	<path d="M518.7,84.5v67.3H505v-27.4h-13.8v27.4h-13.7V84.5h13.7v26.9H505V84.5H518.7z"/>
	<path d="M566.5,97.5h-13.2v54.3h-14V97.5h-13.2v-13h40.4V97.5z"/>
	<path d="M595,140.6h-14.2l-2.2,11.1h-14.1l16.1-67.3h14.6l16.1,67.3h-14.1L595,140.6z M592.3,127.6l-1.5-7.7
		c-0.9-4.9-1.8-11.1-2.7-18.5h-0.4c-1.1,8.7-2,14.8-2.7,18.5l-1.5,7.7H592.3z"/>
	<path d="M620.1,146.8c-3.8-4.1-5.8-9.7-5.8-16.9v-23.6c0-7.2,1.9-12.8,5.8-16.9c3.8-4.1,9.2-6.1,16.1-6.1c6.9,0,12.2,2,16.1,6.1
		c3.8,4.1,5.8,9.7,5.8,16.9V130c0,7.2-1.9,12.8-5.8,16.9c-3.8,4.1-9.2,6.1-16.1,6.1C629.3,152.9,624,150.9,620.1,146.8z M642,137.2
		c1.3-1.6,1.9-4.1,1.9-7.3v-23.6c0-3.2-0.6-5.6-1.9-7.3c-1.3-1.6-3.2-2.5-5.8-2.5c-2.6,0-4.5,0.8-5.8,2.5c-1.3,1.6-1.9,4.1-1.9,7.3
		V130c0,3.2,0.6,5.6,1.9,7.3c1.3,1.6,3.2,2.5,5.8,2.5C638.8,139.7,640.7,138.8,642,137.2z"/>
	<path d="M701.7,138.8v13H668V84.5h13.6v54.3H701.7z"/>
</g>
</svg>
