<svg id="Warstwa_1" data-name="Warstwa 1" xmlns="http://www.w3.org/2000/svg" viewBox="0 0 167.1 152.88"><defs><style>.cls-1{fill:#616161;}.cls-2{fill:#f46c22;}</style></defs><title>sygnet</title><path class="cls-1" d="M15.93,92.72c1.95-4.58,7.74-8.72,14.35-9.13,0,0,7.86-.62,9.31,7.24,0,0,2.62,16.61,0,19.23,0,0-3.93,5.59-8.89,6.21,0,0-2.69,23,20.88,38.46l3.11-2.48s5.79-4.14,11.37-.21c0,0,9.52,5.69,10.76,7s6.93,6.82-.21,16.13c0,0-4.86,7.55-20.48,2,0,0-26.6-6.58-40.32-43.12C15.81,134.05,8.36,110.06,15.93,92.72Z" transform="translate(-3.1 -26.35)"/><path class="cls-2" d="M170.2,109.9c-1.15,26.84-9.22,41.72-26.54,60.16-4.87,5.42-16.11,4.39-12.11-7.57,2.66-14.73,2.06-19.26-1.38-30.3-10.61-32.16-24.26-31.71-28.35-30.58-1.41.24-8.15,5.2-6.19,11.55.76,3,9.86,18.55-6.25,22.44C70.47,137.84,71.09,123.3,73,119.89c6.72-16.38-4.86-20.51-9.31-18.61-10.44,3-18.71,19.47-19.2,21.67-1.71,4.35-3,9.7-4.48,14-3-4.14-4.62-12.34-5.1-17.79,14-7.65,10.89-29.88,5.21-35.58-9.14-8.31-20.37-2.74-23.06.63-7.58,6-21.17,50,19.51,87.87a54.45,54.45,0,0,1-5.47.23A83.55,83.55,0,1,1,170.2,109.9Z" transform="translate(-3.1 -26.35)"/></svg>